<mxfile host="Electron" agent="Mozilla/5.0 (Windows NT 10.0; Win64; x64) AppleWebKit/537.36 (KHTML, like Gecko) draw.io/28.0.6 Chrome/138.0.7204.100 Electron/37.2.3 Safari/537.36" version="28.0.6">
  <diagram name="Page-1" id="Mkn-kygdDBYhGLmwycYG">
    <mxGraphModel dx="2224" dy="660" grid="1" gridSize="10" guides="1" tooltips="1" connect="1" arrows="1" fold="1" page="1" pageScale="1" pageWidth="850" pageHeight="1100" math="0" shadow="0">
      <root>
        <mxCell id="0" />
        <mxCell id="1" parent="0" />
        <mxCell id="ga-MLXvlqTLZfsfDwEQy-3" value="Admin" style="shape=cube;whiteSpace=wrap;html=1;boundedLbl=1;backgroundOutline=1;darkOpacity=0.05;darkOpacity2=0.1;" vertex="1" parent="1">
          <mxGeometry x="180" y="40" width="120" height="80" as="geometry" />
        </mxCell>
        <mxCell id="ga-MLXvlqTLZfsfDwEQy-4" value="Agent" style="shape=cube;whiteSpace=wrap;html=1;boundedLbl=1;backgroundOutline=1;darkOpacity=0.05;darkOpacity2=0.1;" vertex="1" parent="1">
          <mxGeometry x="740" y="40" width="120" height="80" as="geometry" />
        </mxCell>
        <mxCell id="ga-MLXvlqTLZfsfDwEQy-5" value="Client" style="shape=cube;whiteSpace=wrap;html=1;boundedLbl=1;backgroundOutline=1;darkOpacity=0.05;darkOpacity2=0.1;" vertex="1" parent="1">
          <mxGeometry x="1710" y="40" width="120" height="80" as="geometry" />
        </mxCell>
        <mxCell id="ga-MLXvlqTLZfsfDwEQy-11" value="" style="endArrow=none;html=1;rounded=0;entryX=0.012;entryY=0.52;entryDx=0;entryDy=0;entryPerimeter=0;" edge="1" parent="1" target="ga-MLXvlqTLZfsfDwEQy-3">
          <mxGeometry width="50" height="50" relative="1" as="geometry">
            <mxPoint x="50" y="80" as="sourcePoint" />
            <mxPoint x="180" y="70" as="targetPoint" />
            <Array as="points">
              <mxPoint x="120" y="80" />
            </Array>
          </mxGeometry>
        </mxCell>
        <mxCell id="ga-MLXvlqTLZfsfDwEQy-12" value="" style="endArrow=classic;html=1;rounded=0;entryX=0.5;entryY=0;entryDx=0;entryDy=0;" edge="1" parent="1" target="ga-MLXvlqTLZfsfDwEQy-18">
          <mxGeometry width="50" height="50" relative="1" as="geometry">
            <mxPoint x="50" y="80" as="sourcePoint" />
            <mxPoint x="50" y="250" as="targetPoint" />
          </mxGeometry>
        </mxCell>
        <mxCell id="ga-MLXvlqTLZfsfDwEQy-14" value="" style="endArrow=none;html=1;rounded=0;exitX=0.982;exitY=0.82;exitDx=0;exitDy=0;exitPerimeter=0;" edge="1" parent="1" source="ga-MLXvlqTLZfsfDwEQy-3">
          <mxGeometry width="50" height="50" relative="1" as="geometry">
            <mxPoint x="300" y="80" as="sourcePoint" />
            <mxPoint x="440" y="106" as="targetPoint" />
          </mxGeometry>
        </mxCell>
        <mxCell id="ga-MLXvlqTLZfsfDwEQy-16" value="" style="verticalLabelPosition=bottom;verticalAlign=top;html=1;shape=process;whiteSpace=wrap;rounded=1;size=0.14;arcSize=6;direction=south;" vertex="1" parent="1">
          <mxGeometry x="-20" y="310" width="140" height="170" as="geometry" />
        </mxCell>
        <mxCell id="ga-MLXvlqTLZfsfDwEQy-17" value="" style="verticalLabelPosition=bottom;verticalAlign=top;html=1;shape=process;whiteSpace=wrap;rounded=1;size=0.14;arcSize=6;direction=south;" vertex="1" parent="1">
          <mxGeometry x="370" y="310" width="150" height="170" as="geometry" />
        </mxCell>
        <mxCell id="ga-MLXvlqTLZfsfDwEQy-18" value="1" style="text;html=1;align=center;verticalAlign=middle;whiteSpace=wrap;rounded=0;" vertex="1" parent="1">
          <mxGeometry x="20" y="310" width="60" height="30" as="geometry" />
        </mxCell>
        <mxCell id="ga-MLXvlqTLZfsfDwEQy-19" value="C#" style="text;html=1;align=center;verticalAlign=middle;whiteSpace=wrap;rounded=0;" vertex="1" parent="1">
          <mxGeometry x="20" y="450" width="60" height="30" as="geometry" />
        </mxCell>
        <mxCell id="ga-MLXvlqTLZfsfDwEQy-23" value="Generate Reports" style="text;html=1;align=center;verticalAlign=middle;whiteSpace=wrap;rounded=0;" vertex="1" parent="1">
          <mxGeometry x="10" y="375" width="60" height="30" as="geometry" />
        </mxCell>
        <mxCell id="ga-MLXvlqTLZfsfDwEQy-24" value="Backup data" style="text;html=1;align=center;verticalAlign=middle;whiteSpace=wrap;rounded=0;" vertex="1" parent="1">
          <mxGeometry x="425" y="375" width="60" height="30" as="geometry" />
        </mxCell>
        <mxCell id="ga-MLXvlqTLZfsfDwEQy-25" value="C#" style="text;html=1;align=center;verticalAlign=middle;whiteSpace=wrap;rounded=0;" vertex="1" parent="1">
          <mxGeometry x="405" y="450" width="60" height="30" as="geometry" />
        </mxCell>
        <mxCell id="ga-MLXvlqTLZfsfDwEQy-26" value="" style="endArrow=none;html=1;rounded=0;entryX=-0.018;entryY=0.5;entryDx=0;entryDy=0;entryPerimeter=0;" edge="1" parent="1" target="ga-MLXvlqTLZfsfDwEQy-4">
          <mxGeometry width="50" height="50" relative="1" as="geometry">
            <mxPoint x="630" y="80" as="sourcePoint" />
            <mxPoint x="740" y="70" as="targetPoint" />
          </mxGeometry>
        </mxCell>
        <mxCell id="ga-MLXvlqTLZfsfDwEQy-27" value="" style="verticalLabelPosition=bottom;verticalAlign=top;html=1;shape=process;whiteSpace=wrap;rounded=1;size=0.14;arcSize=6;direction=south;" vertex="1" parent="1">
          <mxGeometry x="560" y="310" width="180" height="170" as="geometry" />
        </mxCell>
        <mxCell id="ga-MLXvlqTLZfsfDwEQy-28" value="" style="endArrow=classic;html=1;rounded=0;" edge="1" parent="1">
          <mxGeometry width="50" height="50" relative="1" as="geometry">
            <mxPoint x="440" y="105" as="sourcePoint" />
            <mxPoint x="440" y="310" as="targetPoint" />
          </mxGeometry>
        </mxCell>
        <mxCell id="ga-MLXvlqTLZfsfDwEQy-29" value="" style="endArrow=classic;html=1;rounded=0;" edge="1" parent="1">
          <mxGeometry width="50" height="50" relative="1" as="geometry">
            <mxPoint x="630" y="80" as="sourcePoint" />
            <mxPoint x="630" y="310" as="targetPoint" />
          </mxGeometry>
        </mxCell>
        <mxCell id="ga-MLXvlqTLZfsfDwEQy-30" value="" style="endArrow=none;html=1;rounded=0;" edge="1" parent="1">
          <mxGeometry width="50" height="50" relative="1" as="geometry">
            <mxPoint x="300" y="80" as="sourcePoint" />
            <mxPoint x="600" y="80" as="targetPoint" />
          </mxGeometry>
        </mxCell>
        <mxCell id="ga-MLXvlqTLZfsfDwEQy-32" value="" style="endArrow=classic;html=1;rounded=0;entryX=0;entryY=0.75;entryDx=0;entryDy=0;" edge="1" parent="1" target="ga-MLXvlqTLZfsfDwEQy-27">
          <mxGeometry width="50" height="50" relative="1" as="geometry">
            <mxPoint x="600" y="80" as="sourcePoint" />
            <mxPoint x="650" y="30" as="targetPoint" />
          </mxGeometry>
        </mxCell>
        <mxCell id="ga-MLXvlqTLZfsfDwEQy-33" value="2" style="text;html=1;align=center;verticalAlign=middle;whiteSpace=wrap;rounded=0;" vertex="1" parent="1">
          <mxGeometry x="405" y="310" width="60" height="30" as="geometry" />
        </mxCell>
        <mxCell id="ga-MLXvlqTLZfsfDwEQy-34" value="3" style="text;html=1;align=center;verticalAlign=middle;whiteSpace=wrap;rounded=0;" vertex="1" parent="1">
          <mxGeometry x="600" y="310" width="60" height="30" as="geometry" />
        </mxCell>
        <mxCell id="ga-MLXvlqTLZfsfDwEQy-35" value="Maintain Policyholders" style="text;html=1;align=center;verticalAlign=middle;whiteSpace=wrap;rounded=0;" vertex="1" parent="1">
          <mxGeometry x="605" y="375" width="60" height="30" as="geometry" />
        </mxCell>
        <mxCell id="ga-MLXvlqTLZfsfDwEQy-36" value="C#" style="text;html=1;align=center;verticalAlign=middle;whiteSpace=wrap;rounded=0;" vertex="1" parent="1">
          <mxGeometry x="605" y="450" width="60" height="30" as="geometry" />
        </mxCell>
        <mxCell id="ga-MLXvlqTLZfsfDwEQy-37" value="" style="endArrow=none;html=1;rounded=0;exitX=1.022;exitY=0.89;exitDx=0;exitDy=0;exitPerimeter=0;" edge="1" parent="1" source="ga-MLXvlqTLZfsfDwEQy-4">
          <mxGeometry width="50" height="50" relative="1" as="geometry">
            <mxPoint x="860" y="80" as="sourcePoint" />
            <mxPoint x="1000" y="111" as="targetPoint" />
          </mxGeometry>
        </mxCell>
        <mxCell id="ga-MLXvlqTLZfsfDwEQy-39" value="" style="endArrow=classic;html=1;rounded=0;" edge="1" parent="1">
          <mxGeometry width="50" height="50" relative="1" as="geometry">
            <mxPoint x="1000" y="110" as="sourcePoint" />
            <mxPoint x="1000" y="310" as="targetPoint" />
          </mxGeometry>
        </mxCell>
        <mxCell id="ga-MLXvlqTLZfsfDwEQy-40" value="" style="verticalLabelPosition=bottom;verticalAlign=top;html=1;shape=process;whiteSpace=wrap;rounded=1;size=0.14;arcSize=6;direction=south;" vertex="1" parent="1">
          <mxGeometry x="940" y="310" width="140" height="170" as="geometry" />
        </mxCell>
        <mxCell id="ga-MLXvlqTLZfsfDwEQy-44" value="" style="endArrow=none;html=1;rounded=0;" edge="1" parent="1">
          <mxGeometry width="50" height="50" relative="1" as="geometry">
            <mxPoint x="280" y="40" as="sourcePoint" />
            <mxPoint x="2040" y="40" as="targetPoint" />
          </mxGeometry>
        </mxCell>
        <mxCell id="ga-MLXvlqTLZfsfDwEQy-47" value="" style="endArrow=none;html=1;rounded=0;" edge="1" parent="1">
          <mxGeometry width="50" height="50" relative="1" as="geometry">
            <mxPoint x="860" y="80" as="sourcePoint" />
            <mxPoint x="1240" y="80" as="targetPoint" />
          </mxGeometry>
        </mxCell>
        <mxCell id="ga-MLXvlqTLZfsfDwEQy-48" value="" style="endArrow=classic;html=1;rounded=0;entryX=1;entryY=0;entryDx=0;entryDy=0;" edge="1" parent="1">
          <mxGeometry width="50" height="50" relative="1" as="geometry">
            <mxPoint x="1040" y="40" as="sourcePoint" />
            <mxPoint x="1040" y="310" as="targetPoint" />
          </mxGeometry>
        </mxCell>
        <mxCell id="ga-MLXvlqTLZfsfDwEQy-49" value="4" style="text;html=1;align=center;verticalAlign=middle;whiteSpace=wrap;rounded=0;" vertex="1" parent="1">
          <mxGeometry x="980" y="310" width="60" height="30" as="geometry" />
        </mxCell>
        <mxCell id="ga-MLXvlqTLZfsfDwEQy-50" value="Maintain Policies" style="text;html=1;align=center;verticalAlign=middle;whiteSpace=wrap;rounded=0;" vertex="1" parent="1">
          <mxGeometry x="980" y="375" width="60" height="30" as="geometry" />
        </mxCell>
        <mxCell id="ga-MLXvlqTLZfsfDwEQy-51" value="C#" style="text;html=1;align=center;verticalAlign=middle;whiteSpace=wrap;rounded=0;" vertex="1" parent="1">
          <mxGeometry x="980" y="450" width="60" height="30" as="geometry" />
        </mxCell>
        <mxCell id="ga-MLXvlqTLZfsfDwEQy-52" value="" style="verticalLabelPosition=bottom;verticalAlign=top;html=1;shape=process;whiteSpace=wrap;rounded=1;size=0.14;arcSize=6;direction=south;" vertex="1" parent="1">
          <mxGeometry x="1210" y="300" width="150" height="180" as="geometry" />
        </mxCell>
        <mxCell id="ga-MLXvlqTLZfsfDwEQy-53" value="" style="endArrow=classic;html=1;rounded=0;entryX=-0.01;entryY=0.799;entryDx=0;entryDy=0;entryPerimeter=0;" edge="1" parent="1" target="ga-MLXvlqTLZfsfDwEQy-52">
          <mxGeometry width="50" height="50" relative="1" as="geometry">
            <mxPoint x="1240" y="80" as="sourcePoint" />
            <mxPoint x="1240" y="300" as="targetPoint" />
          </mxGeometry>
        </mxCell>
        <mxCell id="ga-MLXvlqTLZfsfDwEQy-54" value="" style="endArrow=classic;html=1;rounded=0;entryX=0;entryY=0.5;entryDx=0;entryDy=0;" edge="1" parent="1" target="ga-MLXvlqTLZfsfDwEQy-52">
          <mxGeometry width="50" height="50" relative="1" as="geometry">
            <mxPoint x="1290" y="40" as="sourcePoint" />
            <mxPoint x="1340" y="-10" as="targetPoint" />
          </mxGeometry>
        </mxCell>
        <mxCell id="ga-MLXvlqTLZfsfDwEQy-55" value="5" style="text;html=1;align=center;verticalAlign=middle;whiteSpace=wrap;rounded=0;" vertex="1" parent="1">
          <mxGeometry x="1255" y="300" width="60" height="30" as="geometry" />
        </mxCell>
        <mxCell id="ga-MLXvlqTLZfsfDwEQy-56" value="Login to the System" style="text;html=1;align=center;verticalAlign=middle;whiteSpace=wrap;rounded=0;" vertex="1" parent="1">
          <mxGeometry x="1255" y="375" width="60" height="30" as="geometry" />
        </mxCell>
        <mxCell id="ga-MLXvlqTLZfsfDwEQy-57" value="C#" style="text;html=1;align=center;verticalAlign=middle;whiteSpace=wrap;rounded=0;" vertex="1" parent="1">
          <mxGeometry x="1255" y="450" width="60" height="30" as="geometry" />
        </mxCell>
        <mxCell id="ga-MLXvlqTLZfsfDwEQy-58" value="Windows 10 GUI: Maintain Policies Form" style="text;html=1;align=center;verticalAlign=middle;whiteSpace=wrap;rounded=0;" vertex="1" parent="1">
          <mxGeometry x="1040" y="120" width="60" height="30" as="geometry" />
        </mxCell>
        <mxCell id="ga-MLXvlqTLZfsfDwEQy-59" value="Windows 10 GUI:&lt;div&gt;Login to the System Form&lt;/div&gt;" style="text;html=1;align=center;verticalAlign=middle;whiteSpace=wrap;rounded=0;" vertex="1" parent="1">
          <mxGeometry x="1300" y="120" width="60" height="30" as="geometry" />
        </mxCell>
        <mxCell id="ga-MLXvlqTLZfsfDwEQy-60" value="Windows 10 GUI:&lt;div&gt;Login to the System Form&lt;/div&gt;" style="text;html=1;align=center;verticalAlign=middle;whiteSpace=wrap;rounded=0;" vertex="1" parent="1">
          <mxGeometry x="1185" y="130" width="60" height="30" as="geometry" />
        </mxCell>
        <mxCell id="ga-MLXvlqTLZfsfDwEQy-61" value="Windows 10 GUI: Maintain Policies Form" style="text;html=1;align=center;verticalAlign=middle;whiteSpace=wrap;rounded=0;" vertex="1" parent="1">
          <mxGeometry x="930" y="150" width="60" height="30" as="geometry" />
        </mxCell>
        <mxCell id="ga-MLXvlqTLZfsfDwEQy-62" value="Windows 10 GUI: Maintain Policyholders Form" style="text;html=1;align=center;verticalAlign=middle;whiteSpace=wrap;rounded=0;" vertex="1" parent="1">
          <mxGeometry x="640" y="120" width="60" height="30" as="geometry" />
        </mxCell>
        <mxCell id="ga-MLXvlqTLZfsfDwEQy-63" value="Windows 10 GUI: Maintain Policyholders Form" style="text;html=1;align=center;verticalAlign=middle;whiteSpace=wrap;rounded=0;" vertex="1" parent="1">
          <mxGeometry x="530" y="120" width="60" height="30" as="geometry" />
        </mxCell>
        <mxCell id="ga-MLXvlqTLZfsfDwEQy-64" value="Windows 10 GUI: Backup Data Form" style="text;html=1;align=center;verticalAlign=middle;whiteSpace=wrap;rounded=0;" vertex="1" parent="1">
          <mxGeometry x="365" y="120" width="60" height="30" as="geometry" />
        </mxCell>
        <mxCell id="ga-MLXvlqTLZfsfDwEQy-65" value="Windows&amp;nbsp; 10 GUI: Generate Reports Form" style="text;html=1;align=center;verticalAlign=middle;whiteSpace=wrap;rounded=0;" vertex="1" parent="1">
          <mxGeometry x="60" y="140" width="60" height="30" as="geometry" />
        </mxCell>
        <mxCell id="ga-MLXvlqTLZfsfDwEQy-66" style="edgeStyle=orthogonalEdgeStyle;rounded=0;orthogonalLoop=1;jettySize=auto;html=1;exitX=0.5;exitY=1;exitDx=0;exitDy=0;" edge="1" parent="1" source="ga-MLXvlqTLZfsfDwEQy-50" target="ga-MLXvlqTLZfsfDwEQy-50">
          <mxGeometry relative="1" as="geometry" />
        </mxCell>
        <mxCell id="ga-MLXvlqTLZfsfDwEQy-68" value="" style="endArrow=none;html=1;rounded=0;" edge="1" parent="1">
          <mxGeometry width="50" height="50" relative="1" as="geometry">
            <mxPoint x="1580" y="70" as="sourcePoint" />
            <mxPoint x="1710" y="70" as="targetPoint" />
          </mxGeometry>
        </mxCell>
        <mxCell id="ga-MLXvlqTLZfsfDwEQy-69" value="" style="endArrow=classic;html=1;rounded=0;" edge="1" parent="1">
          <mxGeometry width="50" height="50" relative="1" as="geometry">
            <mxPoint x="1580" y="70" as="sourcePoint" />
            <mxPoint x="1580" y="300" as="targetPoint" />
          </mxGeometry>
        </mxCell>
        <mxCell id="ga-MLXvlqTLZfsfDwEQy-70" value="" style="verticalLabelPosition=bottom;verticalAlign=top;html=1;shape=process;whiteSpace=wrap;rounded=1;size=0.14;arcSize=6;direction=south;" vertex="1" parent="1">
          <mxGeometry x="1480" y="300" width="160" height="180" as="geometry" />
        </mxCell>
        <mxCell id="ga-MLXvlqTLZfsfDwEQy-71" value="6" style="text;html=1;align=center;verticalAlign=middle;whiteSpace=wrap;rounded=0;" vertex="1" parent="1">
          <mxGeometry x="1530" y="300" width="60" height="30" as="geometry" />
        </mxCell>
        <mxCell id="ga-MLXvlqTLZfsfDwEQy-72" value="Track Payments" style="text;html=1;align=center;verticalAlign=middle;whiteSpace=wrap;rounded=0;" vertex="1" parent="1">
          <mxGeometry x="1530" y="375" width="60" height="30" as="geometry" />
        </mxCell>
        <mxCell id="ga-MLXvlqTLZfsfDwEQy-73" value="C#" style="text;html=1;align=center;verticalAlign=middle;whiteSpace=wrap;rounded=0;" vertex="1" parent="1">
          <mxGeometry x="1530" y="450" width="60" height="30" as="geometry" />
        </mxCell>
        <mxCell id="ga-MLXvlqTLZfsfDwEQy-74" value="" style="endArrow=none;html=1;rounded=0;" edge="1" parent="1">
          <mxGeometry width="50" height="50" relative="1" as="geometry">
            <mxPoint x="1830" y="70" as="sourcePoint" />
            <mxPoint x="1980" y="70" as="targetPoint" />
          </mxGeometry>
        </mxCell>
        <mxCell id="ga-MLXvlqTLZfsfDwEQy-75" value="" style="endArrow=classic;html=1;rounded=0;" edge="1" parent="1">
          <mxGeometry width="50" height="50" relative="1" as="geometry">
            <mxPoint x="1980" y="70" as="sourcePoint" />
            <mxPoint x="1980" y="300" as="targetPoint" />
          </mxGeometry>
        </mxCell>
        <mxCell id="ga-MLXvlqTLZfsfDwEQy-77" value="" style="verticalLabelPosition=bottom;verticalAlign=top;html=1;shape=process;whiteSpace=wrap;rounded=1;size=0.14;arcSize=6;direction=south;" vertex="1" parent="1">
          <mxGeometry x="1910" y="300" width="190" height="180" as="geometry" />
        </mxCell>
        <mxCell id="ga-MLXvlqTLZfsfDwEQy-78" value="7" style="text;html=1;align=center;verticalAlign=middle;whiteSpace=wrap;rounded=0;" vertex="1" parent="1">
          <mxGeometry x="1975" y="300" width="60" height="30" as="geometry" />
        </mxCell>
        <mxCell id="ga-MLXvlqTLZfsfDwEQy-79" value="Track File Claim" style="text;html=1;align=center;verticalAlign=middle;whiteSpace=wrap;rounded=0;" vertex="1" parent="1">
          <mxGeometry x="1980" y="370" width="60" height="30" as="geometry" />
        </mxCell>
        <mxCell id="ga-MLXvlqTLZfsfDwEQy-80" value="C#" style="text;html=1;align=center;verticalAlign=middle;whiteSpace=wrap;rounded=0;" vertex="1" parent="1">
          <mxGeometry x="1975" y="450" width="60" height="30" as="geometry" />
        </mxCell>
        <mxCell id="ga-MLXvlqTLZfsfDwEQy-83" style="edgeStyle=orthogonalEdgeStyle;rounded=0;orthogonalLoop=1;jettySize=auto;html=1;exitX=0.5;exitY=1;exitDx=0;exitDy=0;" edge="1" parent="1" source="ga-MLXvlqTLZfsfDwEQy-58" target="ga-MLXvlqTLZfsfDwEQy-58">
          <mxGeometry relative="1" as="geometry" />
        </mxCell>
        <mxCell id="ga-MLXvlqTLZfsfDwEQy-85" value="" style="endArrow=classic;html=1;rounded=0;entryX=0;entryY=0.75;entryDx=0;entryDy=0;" edge="1" parent="1" target="ga-MLXvlqTLZfsfDwEQy-70">
          <mxGeometry width="50" height="50" relative="1" as="geometry">
            <mxPoint x="1520" y="40" as="sourcePoint" />
            <mxPoint x="1570" y="-10" as="targetPoint" />
          </mxGeometry>
        </mxCell>
        <mxCell id="ga-MLXvlqTLZfsfDwEQy-86" value="Windows 10 GUI:&lt;div&gt;Track Payments Form&lt;/div&gt;" style="text;html=1;align=center;verticalAlign=middle;whiteSpace=wrap;rounded=0;" vertex="1" parent="1">
          <mxGeometry x="1450" y="120" width="60" height="30" as="geometry" />
        </mxCell>
        <mxCell id="ga-MLXvlqTLZfsfDwEQy-87" value="Windows 10 GUI:&lt;div&gt;&amp;nbsp;Track Payments Form&lt;/div&gt;" style="text;html=1;align=center;verticalAlign=middle;whiteSpace=wrap;rounded=0;" vertex="1" parent="1">
          <mxGeometry x="1600" y="110" width="60" height="30" as="geometry" />
        </mxCell>
        <mxCell id="ga-MLXvlqTLZfsfDwEQy-88" value="Windows 10 GUI:&lt;div&gt;File Claim Form&lt;/div&gt;" style="text;html=1;align=center;verticalAlign=middle;whiteSpace=wrap;rounded=0;" vertex="1" parent="1">
          <mxGeometry x="1915" y="120" width="60" height="30" as="geometry" />
        </mxCell>
        <mxCell id="ga-MLXvlqTLZfsfDwEQy-89" value="" style="endArrow=classic;html=1;rounded=0;entryX=-0.014;entryY=0.311;entryDx=0;entryDy=0;entryPerimeter=0;" edge="1" parent="1" target="ga-MLXvlqTLZfsfDwEQy-77">
          <mxGeometry width="50" height="50" relative="1" as="geometry">
            <mxPoint x="2040" y="40" as="sourcePoint" />
            <mxPoint x="2090" y="-10" as="targetPoint" />
          </mxGeometry>
        </mxCell>
        <mxCell id="ga-MLXvlqTLZfsfDwEQy-90" value="Windows 10 GUI: File Claim Form" style="text;html=1;align=center;verticalAlign=middle;whiteSpace=wrap;rounded=0;" vertex="1" parent="1">
          <mxGeometry x="2050" y="120" width="60" height="30" as="geometry" />
        </mxCell>
        <mxCell id="ga-MLXvlqTLZfsfDwEQy-91" value="" style="endArrow=classic;html=1;rounded=0;entryX=0.557;entryY=-0.05;entryDx=0;entryDy=0;entryPerimeter=0;" edge="1" parent="1" target="ga-MLXvlqTLZfsfDwEQy-92">
          <mxGeometry width="50" height="50" relative="1" as="geometry">
            <mxPoint x="20" y="480" as="sourcePoint" />
            <mxPoint x="20" y="600" as="targetPoint" />
          </mxGeometry>
        </mxCell>
        <mxCell id="ga-MLXvlqTLZfsfDwEQy-92" value="" style="html=1;dashed=0;whiteSpace=wrap;shape=mxgraph.dfd.dataStoreID;align=left;spacingLeft=3;points=[[0,0],[0.5,0],[1,0],[0,0.5],[1,0.5],[0,1],[0.5,1],[1,1]];" vertex="1" parent="1">
          <mxGeometry x="-80" y="670" width="180" height="60" as="geometry" />
        </mxCell>
        <mxCell id="ga-MLXvlqTLZfsfDwEQy-93" value="SQL Server: Reports" style="text;html=1;align=center;verticalAlign=middle;whiteSpace=wrap;rounded=0;" vertex="1" parent="1">
          <mxGeometry x="-5" y="680" width="60" height="30" as="geometry" />
        </mxCell>
        <mxCell id="ga-MLXvlqTLZfsfDwEQy-94" value="d1" style="text;html=1;align=center;verticalAlign=middle;whiteSpace=wrap;rounded=0;" vertex="1" parent="1">
          <mxGeometry x="-65" y="680" width="60" height="30" as="geometry" />
        </mxCell>
        <mxCell id="ga-MLXvlqTLZfsfDwEQy-95" value="" style="endArrow=classic;html=1;rounded=0;entryX=0.617;entryY=1.073;entryDx=0;entryDy=0;entryPerimeter=0;" edge="1" parent="1" target="ga-MLXvlqTLZfsfDwEQy-19">
          <mxGeometry width="50" height="50" relative="1" as="geometry">
            <mxPoint x="57" y="660" as="sourcePoint" />
            <mxPoint x="110" y="550" as="targetPoint" />
          </mxGeometry>
        </mxCell>
        <mxCell id="ga-MLXvlqTLZfsfDwEQy-96" value="SQL Insert: New Report&lt;div&gt;SQL Update: Existing Report&lt;/div&gt;&lt;div&gt;SQL Delete: Report_No&lt;/div&gt;" style="text;html=1;align=center;verticalAlign=middle;whiteSpace=wrap;rounded=0;" vertex="1" parent="1">
          <mxGeometry x="-50" y="560" width="60" height="30" as="geometry" />
        </mxCell>
        <mxCell id="ga-MLXvlqTLZfsfDwEQy-99" value="SQL Select:&amp;nbsp;&lt;div&gt;Existing Reports&lt;/div&gt;&lt;div&gt;&lt;br&gt;&lt;/div&gt;" style="text;html=1;align=center;verticalAlign=middle;resizable=0;points=[];autosize=1;strokeColor=none;fillColor=none;" vertex="1" parent="1">
          <mxGeometry x="55" y="520" width="110" height="60" as="geometry" />
        </mxCell>
        <mxCell id="ga-MLXvlqTLZfsfDwEQy-100" value="" style="endArrow=none;html=1;rounded=0;" edge="1" parent="1">
          <mxGeometry width="50" height="50" relative="1" as="geometry">
            <mxPoint x="100" y="679" as="sourcePoint" />
            <mxPoint x="830" y="679" as="targetPoint" />
          </mxGeometry>
        </mxCell>
        <mxCell id="ga-MLXvlqTLZfsfDwEQy-101" value="" style="endArrow=none;html=1;rounded=0;" edge="1" parent="1">
          <mxGeometry width="50" height="50" relative="1" as="geometry">
            <mxPoint x="830" y="680" as="sourcePoint" />
            <mxPoint x="830" y="420" as="targetPoint" />
          </mxGeometry>
        </mxCell>
        <mxCell id="ga-MLXvlqTLZfsfDwEQy-102" value="" style="endArrow=classic;html=1;rounded=0;entryX=0.655;entryY=1.004;entryDx=0;entryDy=0;entryPerimeter=0;" edge="1" parent="1" target="ga-MLXvlqTLZfsfDwEQy-40">
          <mxGeometry width="50" height="50" relative="1" as="geometry">
            <mxPoint x="830" y="420" as="sourcePoint" />
            <mxPoint x="930" y="420" as="targetPoint" />
          </mxGeometry>
        </mxCell>
        <mxCell id="ga-MLXvlqTLZfsfDwEQy-103" value="SQL Select: Existing Policies" style="text;html=1;align=center;verticalAlign=middle;whiteSpace=wrap;rounded=0;" vertex="1" parent="1">
          <mxGeometry x="860" y="530" width="60" height="30" as="geometry" />
        </mxCell>
        <mxCell id="ga-MLXvlqTLZfsfDwEQy-104" value="" style="endArrow=none;html=1;rounded=0;" edge="1" parent="1">
          <mxGeometry width="50" height="50" relative="1" as="geometry">
            <mxPoint x="100" y="700" as="sourcePoint" />
            <mxPoint x="1432.39990234375" y="700" as="targetPoint" />
          </mxGeometry>
        </mxCell>
        <mxCell id="ga-MLXvlqTLZfsfDwEQy-105" value="" style="endArrow=none;html=1;rounded=0;" edge="1" parent="1">
          <mxGeometry width="50" height="50" relative="1" as="geometry">
            <mxPoint x="1430" y="700" as="sourcePoint" />
            <mxPoint x="1430" y="440" as="targetPoint" />
          </mxGeometry>
        </mxCell>
        <mxCell id="ga-MLXvlqTLZfsfDwEQy-106" value="" style="endArrow=classic;html=1;rounded=0;" edge="1" parent="1">
          <mxGeometry width="50" height="50" relative="1" as="geometry">
            <mxPoint x="1430" y="440" as="sourcePoint" />
            <mxPoint x="1476" y="440" as="targetPoint" />
          </mxGeometry>
        </mxCell>
        <mxCell id="ga-MLXvlqTLZfsfDwEQy-107" value="SQL Select: Existing Payment" style="text;html=1;align=center;verticalAlign=middle;whiteSpace=wrap;rounded=0;" vertex="1" parent="1">
          <mxGeometry x="1440" y="520" width="60" height="30" as="geometry" />
        </mxCell>
        <mxCell id="ga-MLXvlqTLZfsfDwEQy-110" value="" style="endArrow=none;html=1;rounded=0;" edge="1" parent="1">
          <mxGeometry width="50" height="50" relative="1" as="geometry">
            <mxPoint x="100" y="720" as="sourcePoint" />
            <mxPoint x="1811.599853515625" y="720" as="targetPoint" />
          </mxGeometry>
        </mxCell>
        <mxCell id="ga-MLXvlqTLZfsfDwEQy-112" value="" style="endArrow=none;html=1;rounded=0;" edge="1" parent="1">
          <mxGeometry width="50" height="50" relative="1" as="geometry">
            <mxPoint x="1810" y="720" as="sourcePoint" />
            <mxPoint x="1810" y="410" as="targetPoint" />
          </mxGeometry>
        </mxCell>
        <mxCell id="ga-MLXvlqTLZfsfDwEQy-113" value="" style="endArrow=classic;html=1;rounded=0;entryX=0.611;entryY=1;entryDx=0;entryDy=0;entryPerimeter=0;" edge="1" parent="1" target="ga-MLXvlqTLZfsfDwEQy-77">
          <mxGeometry width="50" height="50" relative="1" as="geometry">
            <mxPoint x="1810" y="410" as="sourcePoint" />
            <mxPoint x="1860" y="360" as="targetPoint" />
          </mxGeometry>
        </mxCell>
        <mxCell id="ga-MLXvlqTLZfsfDwEQy-114" value="SQL Select:&lt;div&gt;Existing File Claim&lt;/div&gt;" style="text;html=1;align=center;verticalAlign=middle;resizable=0;points=[];autosize=1;strokeColor=none;fillColor=none;" vertex="1" parent="1">
          <mxGeometry x="1810" y="510" width="120" height="40" as="geometry" />
        </mxCell>
        <mxCell id="ga-MLXvlqTLZfsfDwEQy-115" value="d6" style="html=1;dashed=0;whiteSpace=wrap;shape=mxgraph.dfd.dataStoreID;align=left;spacingLeft=3;points=[[0,0],[0.5,0],[1,0],[0,0.5],[1,0.5],[0,1],[0.5,1],[1,1]];" vertex="1" parent="1">
          <mxGeometry x="1470" y="630" width="180" height="50" as="geometry" />
        </mxCell>
        <mxCell id="ga-MLXvlqTLZfsfDwEQy-116" value="" style="endArrow=classic;html=1;rounded=0;entryX=0.217;entryY=-0.06;entryDx=0;entryDy=0;entryPerimeter=0;exitX=1.012;exitY=0.819;exitDx=0;exitDy=0;exitPerimeter=0;" edge="1" parent="1" source="ga-MLXvlqTLZfsfDwEQy-70" target="ga-MLXvlqTLZfsfDwEQy-115">
          <mxGeometry width="50" height="50" relative="1" as="geometry">
            <mxPoint x="1540" y="480" as="sourcePoint" />
            <mxPoint x="1590" y="430" as="targetPoint" />
          </mxGeometry>
        </mxCell>
        <mxCell id="ga-MLXvlqTLZfsfDwEQy-117" value="" style="endArrow=classic;html=1;rounded=0;entryX=1.017;entryY=0.194;entryDx=0;entryDy=0;entryPerimeter=0;" edge="1" parent="1" target="ga-MLXvlqTLZfsfDwEQy-70">
          <mxGeometry width="50" height="50" relative="1" as="geometry">
            <mxPoint x="1610" y="630" as="sourcePoint" />
            <mxPoint x="1660" y="580" as="targetPoint" />
          </mxGeometry>
        </mxCell>
        <mxCell id="ga-MLXvlqTLZfsfDwEQy-118" value="SQL Payments:" style="text;html=1;align=center;verticalAlign=middle;whiteSpace=wrap;rounded=0;" vertex="1" parent="1">
          <mxGeometry x="1540" y="640" width="60" height="30" as="geometry" />
        </mxCell>
        <mxCell id="ga-MLXvlqTLZfsfDwEQy-119" value="SQL Insert:&amp;nbsp;&lt;div&gt;Payment&lt;/div&gt;&lt;div&gt;SQL Update:&lt;/div&gt;&lt;div&gt;Existing Payment&amp;nbsp;&lt;div&gt;&lt;br&gt;&lt;/div&gt;&lt;/div&gt;" style="text;html=1;align=center;verticalAlign=middle;resizable=0;points=[];autosize=1;strokeColor=none;fillColor=none;" vertex="1" parent="1">
          <mxGeometry x="1500" y="480" width="120" height="90" as="geometry" />
        </mxCell>
        <mxCell id="ga-MLXvlqTLZfsfDwEQy-120" value="SQL Select:&lt;div&gt;Existing Payment&lt;/div&gt;" style="text;html=1;align=center;verticalAlign=middle;resizable=0;points=[];autosize=1;strokeColor=none;fillColor=none;" vertex="1" parent="1">
          <mxGeometry x="1600" y="490" width="120" height="40" as="geometry" />
        </mxCell>
        <mxCell id="ga-MLXvlqTLZfsfDwEQy-121" value="d7" style="html=1;dashed=0;whiteSpace=wrap;shape=mxgraph.dfd.dataStoreID;align=left;spacingLeft=3;points=[[0,0],[0.5,0],[1,0],[0,0.5],[1,0.5],[0,1],[0.5,1],[1,1]];" vertex="1" parent="1">
          <mxGeometry x="1930" y="630" width="145" height="55" as="geometry" />
        </mxCell>
        <mxCell id="ga-MLXvlqTLZfsfDwEQy-122" value="" style="endArrow=classic;html=1;rounded=0;entryX=0.345;entryY=0.182;entryDx=0;entryDy=0;entryPerimeter=0;" edge="1" parent="1" target="ga-MLXvlqTLZfsfDwEQy-121">
          <mxGeometry width="50" height="50" relative="1" as="geometry">
            <mxPoint x="1980" y="480" as="sourcePoint" />
            <mxPoint x="2030" y="430" as="targetPoint" />
          </mxGeometry>
        </mxCell>
        <mxCell id="ga-MLXvlqTLZfsfDwEQy-123" value="" style="endArrow=none;html=1;rounded=0;" edge="1" parent="1">
          <mxGeometry width="50" height="50" relative="1" as="geometry">
            <mxPoint x="1980" y="800" as="sourcePoint" />
            <mxPoint x="1980" y="685" as="targetPoint" />
          </mxGeometry>
        </mxCell>
        <mxCell id="ga-MLXvlqTLZfsfDwEQy-126" value="" style="endArrow=none;html=1;rounded=0;" edge="1" parent="1">
          <mxGeometry width="50" height="50" relative="1" as="geometry">
            <mxPoint x="730" y="800" as="sourcePoint" />
            <mxPoint x="1980" y="800" as="targetPoint" />
          </mxGeometry>
        </mxCell>
        <mxCell id="ga-MLXvlqTLZfsfDwEQy-127" value="" style="endArrow=classic;html=1;rounded=0;entryX=1.008;entryY=0.044;entryDx=0;entryDy=0;entryPerimeter=0;" edge="1" parent="1" target="ga-MLXvlqTLZfsfDwEQy-27">
          <mxGeometry width="50" height="50" relative="1" as="geometry">
            <mxPoint x="730" y="800" as="sourcePoint" />
            <mxPoint x="640" y="480" as="targetPoint" />
          </mxGeometry>
        </mxCell>
        <mxCell id="ga-MLXvlqTLZfsfDwEQy-128" value="SQL Server: File Claim" style="text;html=1;align=center;verticalAlign=middle;whiteSpace=wrap;rounded=0;" vertex="1" parent="1">
          <mxGeometry x="1975" y="643" width="60" height="30" as="geometry" />
        </mxCell>
        <mxCell id="ga-MLXvlqTLZfsfDwEQy-129" value="SQL Insert:&amp;nbsp;&lt;div&gt;File Claim Details&lt;/div&gt;&lt;div&gt;SQL Update:&lt;/div&gt;&lt;div&gt;Existing flleClaim&lt;/div&gt;&lt;div&gt;SQL Delete:&amp;nbsp;&lt;/div&gt;&lt;div&gt;Existing fileClaim&lt;/div&gt;" style="text;html=1;align=center;verticalAlign=middle;resizable=0;points=[];autosize=1;strokeColor=none;fillColor=none;" vertex="1" parent="1">
          <mxGeometry x="1980" y="490" width="120" height="100" as="geometry" />
        </mxCell>
        <mxCell id="ga-MLXvlqTLZfsfDwEQy-130" value="SQL Select:&lt;div&gt;&amp;nbsp;Policyholder&lt;/div&gt;" style="text;html=1;align=center;verticalAlign=middle;resizable=0;points=[];autosize=1;strokeColor=none;fillColor=none;" vertex="1" parent="1">
          <mxGeometry x="1980" y="703" width="90" height="40" as="geometry" />
        </mxCell>
        <mxCell id="ga-MLXvlqTLZfsfDwEQy-131" value="d2" style="html=1;dashed=0;whiteSpace=wrap;shape=mxgraph.dfd.dataStoreID;align=left;spacingLeft=3;points=[[0,0],[0.5,0],[1,0],[0,0.5],[1,0.5],[0,1],[0.5,1],[1,1]];" vertex="1" parent="1">
          <mxGeometry x="940" y="640" width="140" height="50" as="geometry" />
        </mxCell>
        <mxCell id="ga-MLXvlqTLZfsfDwEQy-132" value="" style="endArrow=classic;html=1;rounded=0;entryX=0.214;entryY=0;entryDx=0;entryDy=0;entryPerimeter=0;" edge="1" parent="1" target="ga-MLXvlqTLZfsfDwEQy-131">
          <mxGeometry width="50" height="50" relative="1" as="geometry">
            <mxPoint x="970" y="480" as="sourcePoint" />
            <mxPoint x="1020" y="430" as="targetPoint" />
          </mxGeometry>
        </mxCell>
        <mxCell id="ga-MLXvlqTLZfsfDwEQy-133" value="" style="endArrow=classic;html=1;rounded=0;entryX=0.985;entryY=0.13;entryDx=0;entryDy=0;entryPerimeter=0;" edge="1" parent="1" target="ga-MLXvlqTLZfsfDwEQy-40">
          <mxGeometry width="50" height="50" relative="1" as="geometry">
            <mxPoint x="1062" y="630" as="sourcePoint" />
            <mxPoint x="1090" y="580" as="targetPoint" />
          </mxGeometry>
        </mxCell>
        <mxCell id="ga-MLXvlqTLZfsfDwEQy-134" value="SQL Server: Policies" style="text;html=1;align=center;verticalAlign=middle;whiteSpace=wrap;rounded=0;" vertex="1" parent="1">
          <mxGeometry x="980" y="651.5" width="60" height="27" as="geometry" />
        </mxCell>
        <mxCell id="ga-MLXvlqTLZfsfDwEQy-135" value="SQL Insert:&amp;nbsp;&lt;div&gt;Policies&lt;/div&gt;&lt;div&gt;SQL Update:&lt;/div&gt;&lt;div&gt;Existing Policies&lt;/div&gt;&lt;div&gt;SQL Delete:&amp;nbsp;&lt;/div&gt;&lt;div&gt;Existing Policy&lt;/div&gt;" style="text;html=1;align=center;verticalAlign=middle;resizable=0;points=[];autosize=1;strokeColor=none;fillColor=none;" vertex="1" parent="1">
          <mxGeometry x="960" y="495" width="110" height="100" as="geometry" />
        </mxCell>
        <mxCell id="ga-MLXvlqTLZfsfDwEQy-136" value="SQL Select:&amp;nbsp;&lt;div&gt;Existing Policies&lt;/div&gt;" style="text;html=1;align=center;verticalAlign=middle;resizable=0;points=[];autosize=1;strokeColor=none;fillColor=none;" vertex="1" parent="1">
          <mxGeometry x="1060" y="490" width="110" height="40" as="geometry" />
        </mxCell>
        <mxCell id="ga-MLXvlqTLZfsfDwEQy-137" value="d3" style="html=1;dashed=0;whiteSpace=wrap;shape=mxgraph.dfd.dataStoreID;align=left;spacingLeft=3;points=[[0,0],[0.5,0],[1,0],[0,0.5],[1,0.5],[0,1],[0.5,1],[1,1]];" vertex="1" parent="1">
          <mxGeometry x="440" y="830" width="230" height="50" as="geometry" />
        </mxCell>
        <mxCell id="ga-MLXvlqTLZfsfDwEQy-139" value="" style="endArrow=none;html=1;rounded=0;" edge="1" parent="1">
          <mxGeometry width="50" height="50" relative="1" as="geometry">
            <mxPoint x="530" y="750" as="sourcePoint" />
            <mxPoint x="530" y="450" as="targetPoint" />
          </mxGeometry>
        </mxCell>
        <mxCell id="ga-MLXvlqTLZfsfDwEQy-141" value="" style="endArrow=none;html=1;rounded=0;entryX=0.824;entryY=1;entryDx=0;entryDy=0;entryPerimeter=0;" edge="1" parent="1" target="ga-MLXvlqTLZfsfDwEQy-27">
          <mxGeometry width="50" height="50" relative="1" as="geometry">
            <mxPoint x="530" y="450" as="sourcePoint" />
            <mxPoint x="580" y="400" as="targetPoint" />
          </mxGeometry>
        </mxCell>
        <mxCell id="ga-MLXvlqTLZfsfDwEQy-142" value="" style="endArrow=classic;html=1;rounded=0;entryX=0.401;entryY=-0.06;entryDx=0;entryDy=0;entryPerimeter=0;" edge="1" parent="1" target="ga-MLXvlqTLZfsfDwEQy-137">
          <mxGeometry width="50" height="50" relative="1" as="geometry">
            <mxPoint x="530" y="750" as="sourcePoint" />
            <mxPoint x="530" y="810" as="targetPoint" />
          </mxGeometry>
        </mxCell>
        <mxCell id="ga-MLXvlqTLZfsfDwEQy-144" value="" style="endArrow=classic;html=1;rounded=0;entryX=0.75;entryY=1;entryDx=0;entryDy=0;exitX=0.913;exitY=0;exitDx=0;exitDy=0;exitPerimeter=0;" edge="1" parent="1" source="ga-MLXvlqTLZfsfDwEQy-137" target="ga-MLXvlqTLZfsfDwEQy-36">
          <mxGeometry width="50" height="50" relative="1" as="geometry">
            <mxPoint x="650" y="810" as="sourcePoint" />
            <mxPoint x="670" y="780" as="targetPoint" />
          </mxGeometry>
        </mxCell>
        <mxCell id="ga-MLXvlqTLZfsfDwEQy-145" value="SQL Server: Policyholders" style="text;html=1;align=center;verticalAlign=middle;whiteSpace=wrap;rounded=0;" vertex="1" parent="1">
          <mxGeometry x="515" y="840" width="60" height="30" as="geometry" />
        </mxCell>
        <mxCell id="ga-MLXvlqTLZfsfDwEQy-146" value="SQL Insert:&lt;div&gt;Policyholders&lt;/div&gt;&lt;div&gt;SQL Update:&lt;/div&gt;&lt;div&gt;Existing Policyholders&lt;/div&gt;&lt;div&gt;SQL Delete:&amp;nbsp;&lt;/div&gt;&lt;div&gt;Existing Policyholders&lt;/div&gt;" style="text;html=1;align=center;verticalAlign=middle;resizable=0;points=[];autosize=1;strokeColor=none;fillColor=none;rotation=0;" vertex="1" parent="1">
          <mxGeometry x="520" y="543" width="140" height="100" as="geometry" />
        </mxCell>
        <mxCell id="ga-MLXvlqTLZfsfDwEQy-149" value="SQL Select:&lt;div&gt;Existing&amp;nbsp;&lt;/div&gt;&lt;div&gt;Policyholders&lt;/div&gt;" style="text;html=1;align=center;verticalAlign=middle;resizable=0;points=[];autosize=1;strokeColor=none;fillColor=none;" vertex="1" parent="1">
          <mxGeometry x="640" y="625" width="90" height="60" as="geometry" />
        </mxCell>
      </root>
    </mxGraphModel>
  </diagram>
</mxfile>
